<svg id="Capa_1" xmlns="http://www.w3.org/2000/svg" viewBox="0 0 300 50"><style>.st0,.st1,.st2,.st3{fill-rule:evenodd;clip-rule:evenodd;fill:#030104}.st1,.st2,.st3{fill:#edeeee}.st2,.st3{fill:#1a7cb9}.st3{fill:#fefefe}</style><g id="XMLID_20_"><path id="XMLID_31_" class="st0" d="M25.3 29.8c0 1.8-.6 3.2-1.9 4.2-1.3 1-3.2 1.5-5.7 1.5-1.4 0-2.4-.1-3.4-.2-.9-.2-1.8-.5-2.6-.9v-4.1c1 .5 1.9.9 3.1 1.2 1.2.3 2.2.4 3 .4 1.8 0 2.7-.5 2.7-1.6 0-.4-.1-.7-.4-1-.2-.2-.6-.5-1.2-.8-.6-.3-1.4-.7-2.3-1.1-1.4-.6-2.4-1.2-3.1-1.7-.6-.5-1.1-1.1-1.4-1.7-.3-.6-.5-1.4-.5-2.3 0-1.6.6-2.8 1.8-3.7 1.3-.9 3-1.4 5.3-1.4 2.1 0 4.3.5 6.3 1.5l-1.5 3.5c-.9-.4-1.8-.7-2.5-.9-.8-.3-1.7-.4-2.4-.4-1.5 0-2.1.4-2.1 1.2 0 .4.2.8.7 1.2.5.3 1.5.8 3.1 1.5 1.4.5 2.4 1.1 3 1.6.7.5 1.2 1.1 1.5 1.7.4.5.5 1.3.5 2.3zM29 12.3c0-1.6.9-2.3 2.6-2.3 1.8 0 2.7.8 2.7 2.3 0 .8-.2 1.4-.7 1.8-.4.4-1.1.6-2 .6-1.7 0-2.6-.8-2.6-2.4zm5.2 22.8h-5V17h5v18.1zM55.1 17v2.5l-2.8.7c.5.8.8 1.8.8 2.7 0 1.9-.7 3.5-2 4.6-1.4 1.1-3.2 1.6-5.6 1.6h-.9l-.9-.1c-.5.4-.8.9-.8 1.3 0 .8 1 1.1 2.7 1.1h3.1c2 0 3.5.5 4.6 1.4 1.1.8 1.6 2 1.6 3.7 0 2.1-.9 3.8-2.6 5-1.8 1.2-4.4 1.8-7.7 1.8-2.4 0-4.4-.5-5.7-1.4s-2-2.1-2-3.7c0-1.1.4-1.9 1.1-2.7.7-.8 1.7-1.3 3-1.6-.6-.2-1-.6-1.4-1.1-.4-.5-.6-1-.6-1.6 0-.7.2-1.3.6-1.7.4-.5 1-.9 1.7-1.4-1-.4-1.7-1.1-2.2-1.9-.6-.9-.9-1.9-.9-3.2 0-1.9.7-3.5 1.9-4.6 1.3-1.1 3.1-1.7 5.5-1.7.5 0 1.1.1 1.7.2.8 0 1.2.1 1.4.2h6.4zm-14 20.7c0 .7.4 1.3 1 1.7.7.4 1.7.6 2.8.6 1.8 0 3.1-.3 4.1-.8 1.1-.5 1.6-1.2 1.6-1.9s-.3-1.2-.9-1.5c-.6-.2-1.6-.4-2.8-.4h-2.5c-.9 0-1.7.2-2.2.7-.8.3-1.1.9-1.1 1.6zM42.9 23c0 1 .2 1.8.7 2.3.4.5 1.1.8 2 .8.9 0 1.6-.3 2-.8.4-.6.6-1.4.6-2.3 0-2.2-.9-3.3-2.6-3.3-1.8 0-2.7 1-2.7 3.3zm31.3 12.1h-4.9V24.5c0-1.3-.3-2.2-.7-2.9-.5-.7-1.2-1-2-1-1.3 0-2.2.5-2.8 1.4-.6 1-.8 2.4-.8 4.6v8.6h-5V17h3.8l.6 2.2h.3c.5-.8 1.2-1.5 2.1-1.9.9-.4 1.9-.7 3.1-.7 2.7 0 4.6.9 5.5 2.6h.6c.5-.8 1.3-1.5 2.2-1.9.9-.4 1.9-.7 3.1-.7 2.1 0 3.7.6 4.7 1.6 1.1 1.1 1.7 2.8 1.7 5.1v11.9h-5V24.5c0-1.3-.3-2.2-.7-2.9-.5-.7-1.2-1-2-1-1.3 0-2.1.4-2.7 1.3-.6.9-1 2.2-1 4.1v9.1zm28 0l-1-2.4h-.1c-.9 1-1.8 1.8-2.6 2.1s-1.9.6-3.4.6c-1.8 0-3.1-.5-4.1-1.5-1.1-1-1.6-2.4-1.6-4.3s.7-3.3 2-4.3c1.4-.9 3.4-1.4 6.1-1.5l3.1-.1v-.8c0-1.8-1-2.8-2.8-2.8-1.5 0-3.1.5-5.1 1.4L91 18.2c2-1.2 4.4-1.7 6.9-1.7 2.4 0 4.3.5 5.5 1.6 1.4 1.1 1.9 2.7 1.9 4.9v12.1h-3.1zm-1.5-8.3h-1.9c-1.4.1-2.5.3-3.2.8-.7.5-1.1 1.3-1.1 2.2 0 1.4.9 2 2.4 2 1.2 0 2-.3 2.7-1 .7-.7 1.1-1.6 1.1-2.6v-1.4z"/><path id="XMLID_21_" class="st1" d="M27.6 27.9c0 1.8-.7 3.3-1.9 4.3-1.3 1-3.2 1.5-5.7 1.5-1.4 0-2.4-.1-3.4-.3-1-.2-1.8-.5-2.6-.8v-4.1c1 .4 1.9.8 3.1 1.1 1.2.3 2.1.5 3 .5 1.8 0 2.7-.6 2.7-1.6 0-.4-.1-.8-.4-1-.2-.3-.6-.6-1.2-.9-.6-.3-1.4-.7-2.3-1.1-1.5-.6-2.4-1.1-3.1-1.6-.7-.6-1.2-1.1-1.5-1.8-.3-.7-.4-1.5-.4-2.3 0-1.7.6-2.9 1.8-3.8 1.3-.9 3-1.3 5.3-1.3 2.1 0 4.3.5 6.3 1.4L26 19.9c-1-.4-1.8-.7-2.5-1-.9-.3-1.7-.4-2.4-.4-1.5 0-2.2.4-2.2 1.2 0 .5.3.9.8 1.2.4.4 1.5.8 3 1.5 1.5.6 2.4 1.1 3.1 1.7.7.5 1.2 1.1 1.5 1.7.1.5.3 1.3.3 2.1zm3.7-17.4c0-1.7.9-2.4 2.6-2.4 1.8 0 2.7.8 2.7 2.4 0 .8-.2 1.4-.7 1.7-.5.5-1.2.7-2 .7-1.7.1-2.6-.7-2.6-2.4zm5.1 22.8h-4.9V15.2h4.9v18.1zm21-18.1v2.5l-2.8.8c.5.8.8 1.7.8 2.6 0 1.9-.7 3.5-2 4.6-1.4 1.1-3.3 1.7-5.6 1.7l-.9-.1H46c-.5.4-.8.8-.8 1.3 0 .7 1 1.1 2.7 1.1H51c1.9 0 3.5.4 4.6 1.3 1 .9 1.6 2.1 1.6 3.8 0 2-.9 3.7-2.7 4.9-1.8 1.2-4.3 1.8-7.6 1.8-2.5 0-4.5-.4-5.7-1.3-1.4-.9-2-2.1-2-3.7 0-1.2.4-2 1.1-2.7.7-.8 1.7-1.3 2.9-1.7-.5-.2-.9-.5-1.3-1.1-.4-.5-.6-1-.6-1.6 0-.7.2-1.3.6-1.7.4-.5 1-1 1.8-1.4-1-.4-1.8-1.1-2.2-2-.6-.9-.9-1.9-.9-3.2 0-1.9.7-3.5 1.9-4.6 1.3-1.1 3.1-1.6 5.5-1.6.5 0 1.1 0 1.8.1s1.2.2 1.4.2h6.2zm-14 20.7c0 .7.3 1.2 1 1.6.7.4 1.6.6 2.7.6 1.8 0 3.2-.2 4.2-.7 1.1-.5 1.6-1.2 1.6-2 0-.7-.3-1.2-.9-1.4-.7-.3-1.6-.4-2.8-.4h-2.5c-.9 0-1.7.2-2.2.6-.8.4-1.1.9-1.1 1.7zm1.8-14.8c0 1 .2 1.7.6 2.3.5.6 1.2.9 2.1.9.9 0 1.6-.3 2-.9.4-.6.6-1.4.6-2.3 0-2.1-.9-3.3-2.6-3.3-1.8 0-2.7 1.2-2.7 3.3zm31.3 12.2h-5V22.8c0-1.4-.2-2.3-.6-3-.5-.6-1.2-1-2.1-1-1.3 0-2.1.5-2.7 1.5-.6.9-.9 2.4-.9 4.6v8.5h-5V15.2H64l.7 2.3h.3c.5-.9 1.2-1.5 2.1-1.9.9-.5 1.9-.7 3.1-.7 2.7 0 4.6.9 5.5 2.6h.4c.5-.9 1.3-1.5 2.1-1.9 1-.5 2-.7 3.2-.7 2 0 3.6.5 4.7 1.6s1.6 2.7 1.6 5.1v11.8h-5V22.8c0-1.4-.2-2.3-.6-3-.5-.6-1.2-1-2.1-1-1.2 0-2 .5-2.7 1.4-.6.9-.9 2.2-.9 4.1v9zm27.9 0l-1-2.4h-.1c-.9 1.1-1.8 1.8-2.6 2.1-.9.5-2 .7-3.4.7-1.8 0-3.1-.5-4.2-1.6-1-1-1.5-2.3-1.5-4.2 0-1.9.7-3.4 2-4.3 1.4-.9 3.4-1.5 6-1.6h3.4v-.8c0-1.8-1-2.7-2.8-2.7-1.5 0-3.2.4-5.2 1.3l-1.7-3.3c2.1-1.1 4.5-1.7 7-1.7 2.4 0 4.3.6 5.5 1.7 1.3 1.1 1.9 2.6 1.9 4.8v12.1h-3.3zm-1.4-8.4l-2 .1c-1.5 0-2.5.3-3.2.8-.7.5-1.1 1.2-1.1 2.1 0 1.4.8 2.1 2.4 2.1 1.2 0 2-.4 2.7-1.1.7-.6 1.1-1.5 1.1-2.6v-1.4z"/></g><path id="XMLID_19_" class="st2" d="M115.1 5.3h5v40h-5z"/><g id="XMLID_50_"><path id="XMLID_65_" class="st0" d="M137 24.3c0 1.4-.5 2.5-1.5 3.3-.9.8-2.3 1.2-4.2 1.2h-1.6v5.5H128V20.2h3.7c3.6 0 5.3 1.4 5.3 4.1zm-7.3 3.1h1.4c1.5 0 2.5-.3 3.2-.8.7-.5 1-1.2 1-2.3 0-.9-.4-1.7-.9-2.1-.7-.5-1.6-.7-2.9-.7h-1.8v5.9zm16.3-5.9c-1.5 0-2.7.5-3.7 1.5s-1.4 2.4-1.4 4.3c0 1.8.5 3.3 1.3 4.2.9 1 2.2 1.6 3.8 1.6 1 0 2.2-.2 3.4-.6v1.4c-.9.4-2.2.6-3.7.6-2.1 0-3.7-.7-4.8-1.9-1.1-1.3-1.7-3.1-1.7-5.4 0-1.4.3-2.7.8-3.8.6-1 1.4-1.9 2.4-2.5 1-.6 2.3-.8 3.6-.8 1.5 0 2.8.3 3.9.8l-.7 1.4c-1-.6-2-.8-3.2-.8zm19.6 9.1c0 1.2-.4 2.3-1.3 2.9-.9.8-2.2 1-3.7 1-1.7 0-3-.2-3.9-.7v-1.6c.6.3 1.2.5 1.9.7.8.1 1.4.2 2.1.2 1.1 0 2-.2 2.5-.7.6-.4.8-.9.8-1.7 0-.6-.1-.9-.4-1.2-.2-.4-.5-.7-.9-.9-.5-.2-1.2-.6-2.2-.8-1.3-.5-2.3-1-2.8-1.7s-.8-1.5-.8-2.5c0-1.1.5-2 1.2-2.6.8-.7 2-.9 3.3-.9 1.4 0 2.7.3 3.8.7l-.5 1.4c-1.1-.5-2.3-.7-3.4-.7-.9 0-1.6.2-2.1.6-.5.4-.8.8-.8 1.5 0 .5.1.9.3 1.2.2.3.5.7.9.8.4.3 1 .6 2 .9 1.5.5 2.4 1 3 1.7.7.6 1 1.4 1 2.4zm15.2-3.4c0 2.3-.6 4.1-1.7 5.3-1.1 1.3-2.7 2-4.8 2s-3.7-.7-4.8-1.9c-1.2-1.3-1.8-3.1-1.8-5.4 0-2.3.6-4 1.8-5.3 1.1-1.3 2.7-1.9 4.8-1.9s3.7.7 4.8 1.9c1.2 1.3 1.7 3 1.7 5.3zm-11.2 0c0 2 .4 3.4 1.2 4.4.8.9 2 1.5 3.6 1.5s2.7-.5 3.6-1.5 1.2-2.4 1.2-4.4c0-1.9-.4-3.3-1.2-4.3-.8-.9-2-1.5-3.6-1.5s-2.7.6-3.6 1.5c-.9 1-1.2 2.4-1.2 4.3zm14.4 7.1V20.2h1.7v12.7h6.2v1.5H184zm20.8-14.1v9.2c0 1.6-.5 2.9-1.5 3.8-.9.9-2.3 1.4-4 1.4-1.7 0-3-.5-3.9-1.4S194 31 194 29.4v-9.1h1.7v9.3c0 1.1.3 2.1.9 2.7.7.6 1.6.9 2.9.9 1.1 0 2.1-.4 2.7-.9.7-.7.9-1.6.9-2.8v-9.2h1.7zm8.1 14.1h-1.6V21.7h-4.5v-1.5h10.6v1.5h-4.5v12.6zm6.6 0V20.2h1.7v14.2h-1.7zm17.8-7.1c0 2.3-.6 4.1-1.7 5.3-1.1 1.3-2.7 2-4.8 2-2.1 0-3.8-.7-4.9-1.9-1.1-1.3-1.7-3.1-1.7-5.4 0-2.3.6-4 1.7-5.3 1.1-1.3 2.8-1.9 4.9-1.9 2.1 0 3.7.7 4.8 1.9 1.2 1.3 1.7 3 1.7 5.3zm-11.2 0c0 2 .4 3.4 1.2 4.4.8.9 2 1.5 3.6 1.5s2.7-.5 3.6-1.5c.8-1 1.2-2.4 1.2-4.4 0-1.9-.5-3.3-1.2-4.3-.8-.9-2-1.5-3.6-1.5s-2.7.6-3.6 1.5c-.8 1-1.2 2.4-1.2 4.3zm25.5 7.1h-1.9l-7.8-11.9h-.1c.2 1.4.2 2.7.2 3.8v8.1h-1.5V20.2h1.9l7.7 11.8h.1c0-.2-.1-.8-.1-1.7 0-.9-.1-1.6-.1-2v-8.2h1.6v14.2z"/><path id="XMLID_51_" class="st3" d="M137.4 23.8c0 1.5-.5 2.6-1.4 3.4-1 .8-2.4 1.1-4.2 1.1h-1.7v5.6h-1.6V19.7h3.7c3.5 0 5.2 1.4 5.2 4.1zm-7.3 3.1h1.5c1.5 0 2.5-.2 3.2-.7.7-.6.9-1.3.9-2.3 0-.9-.3-1.6-.9-2.1-.6-.5-1.5-.7-2.8-.7h-1.9v5.8zm16.4-5.9c-1.6 0-2.8.6-3.8 1.6-.8 1-1.3 2.4-1.3 4.2 0 1.9.5 3.3 1.3 4.3s2.1 1.5 3.8 1.5c.9 0 2.1-.2 3.4-.6v1.5c-1 .4-2.3.6-3.7.6-2.1 0-3.8-.7-4.9-2-1.1-1.2-1.7-3-1.7-5.3 0-1.5.3-2.7.8-3.8.6-1.1 1.3-2 2.3-2.5 1-.7 2.3-.9 3.7-.9 1.5 0 2.8.3 3.9.8l-.8 1.4c-.8-.5-2-.8-3-.8zm19.6 9.1c0 1.3-.5 2.3-1.4 3-.8.7-2.1 1-3.7 1-1.7 0-3-.3-3.8-.7v-1.6c.6.2 1.2.4 1.9.6.7.1 1.4.2 2.1.2 1 0 1.9-.2 2.4-.6.6-.5.8-1 .8-1.8 0-.5-.1-.8-.3-1.2-.2-.3-.6-.6-1-.8-.5-.3-1.1-.6-2.1-.9-1.3-.5-2.3-1-2.8-1.7-.6-.6-.8-1.4-.8-2.5 0-1 .4-1.9 1.2-2.5s1.9-1 3.3-1 2.6.3 3.8.8l-.5 1.4c-1.2-.5-2.3-.7-3.5-.7-.8 0-1.5.2-2.1.6-.5.4-.7.9-.7 1.6 0 .5 0 .8.2 1.2.2.3.6.6.9.8.5.3 1.1.6 2 .8 1.5.6 2.5 1.1 3.1 1.7.7.6 1 1.4 1 2.3zm15.2-3.3c0 2.3-.6 4-1.7 5.3-1.2 1.3-2.8 2-4.8 2-2.2 0-3.8-.7-4.9-2-1.1-1.2-1.7-3.1-1.7-5.3 0-2.3.6-4.1 1.7-5.4 1.1-1.2 2.7-1.9 4.9-1.9 2.1 0 3.6.7 4.8 2 1.1 1.3 1.7 3.1 1.7 5.3zm-11.3 0c0 1.9.4 3.4 1.2 4.3.8 1 2 1.5 3.6 1.5 1.5 0 2.7-.5 3.6-1.5.8-.9 1.1-2.4 1.1-4.3 0-2-.4-3.4-1.1-4.3-.8-1-2.1-1.5-3.6-1.5-1.6 0-2.8.5-3.6 1.5-.8.9-1.2 2.4-1.2 4.3zm14.5 7.1V19.7h1.6v12.8h6.3V34h-7.9zm20.7-14.2v9.2c0 1.6-.5 2.9-1.4 3.8-1 .9-2.3 1.4-4 1.4s-3-.5-3.9-1.4-1.4-2.3-1.4-3.8v-9.2h1.6V29c0 1.2.4 2.1 1 2.7s1.6.9 2.8.9 2.2-.3 2.8-.9c.6-.7.9-1.5.9-2.7v-9.3h1.6zm8.1 14.2h-1.7V21.2h-4.4v-1.5h10.6v1.5h-4.5v12.7zm6.7 0V19.7h1.6V34H220zm17.8-7.1c0 2.3-.6 4-1.8 5.3-1.1 1.3-2.7 2-4.8 2s-3.7-.7-4.8-2c-1.1-1.2-1.7-3.1-1.7-5.3 0-2.3.6-4.1 1.7-5.4 1.1-1.2 2.7-1.9 4.9-1.9 2 0 3.6.7 4.7 2 1.3 1.3 1.8 3.1 1.8 5.3zm-11.3 0c0 1.9.5 3.4 1.2 4.3.8 1 2.1 1.5 3.6 1.5 1.6 0 2.8-.5 3.6-1.5.8-.9 1.2-2.4 1.2-4.3 0-2-.4-3.4-1.2-4.3-.8-1-2-1.5-3.5-1.5-1.6 0-2.8.5-3.7 1.5-.8.9-1.2 2.4-1.2 4.3zm25.5 7.1h-1.9L242.4 22h-.1c.1 1.4.2 2.6.2 3.8v8.1h-1.6V19.7h1.9l7.8 11.9v-1.7c-.1-.9-.1-1.6-.1-2.1v-8.2h1.5v14.3z"/></g></svg>