<svg id="Capa_1" xmlns="http://www.w3.org/2000/svg" viewBox="-171 294.9 252 252"><style>.st0{fill:#e0e0e2}.st0,.st1{fill-rule:evenodd;clip-rule:evenodd}.st2{fill:gray}.st2,.st3,.st4,.st5{fill-rule:evenodd;clip-rule:evenodd}.st3{fill:#0085cc}.st4,.st5{stroke:#000;stroke-width:.4819;stroke-miterlimit:10}.st5{fill:#0085cc;stroke:#0085cc}</style><path class="st0" d="M-141.7 294.9H52c16.2 0 29.5 13.2 29.5 29.2V517c0 16.1-13.3 29.3-29.5 29.3h-193.6c-16.1 0-29.3-13.2-29.3-29.3V324.1c-.1-16 13.2-29.2 29.2-29.2z"/><path class="st1" d="M15.4 402.5l7.2-39.7H25l-7.2 39.7h-2.4zM43 385.1L26.8 396v-4.7l12.7-8.3-12.7-8.3V370L43 380.6v4.5zM-125.2 384.7v-4.3l16.6-10.8v4.8l-13.2 8.2 13.2 8.3v4.8z"/><path class="st2" d="M15.4 399.7l7.2-39.7H25l-7.2 39.7h-2.4zM43 382.2l-16.1 10.9v-4.7l12.7-8.3-12.7-8.3v-4.7L43 377.8v4.4zM-125.2 381.9v-4.3l16.6-10.8v4.7l-13.2 8.3 13.2 8.3v4.7z"/><path class="st1" d="M-86.9 470c0 2.5-.8 4.4-2.6 5.7-1.7 1.3-4.4 2-7.8 2-1.9 0-3.3-.1-4.6-.3-1.2-.3-2.4-.7-3.6-1.2v-5.6c1.3.7 2.6 1.2 4.2 1.6 1.6.4 3 .5 4.1.5 2.5 0 3.7-.7 3.7-2.1 0-.5-.1-.9-.5-1.3-.3-.3-.8-.7-1.6-1.1-.8-.4-1.9-.9-3.2-1.5-1.9-.8-3.3-1.6-4.2-2.3-.8-.7-1.5-1.5-1.9-2.4-.4-.8-.7-1.9-.7-3.2 0-2.1.8-3.8 2.5-5 1.7-1.2 4.1-1.9 7.3-1.9 2.9 0 5.8.7 8.6 2l-2 4.8c-1.2-.5-2.4-.9-3.4-1.2-1.1-.4-2.3-.5-3.3-.5-2 0-2.9.5-2.9 1.6 0 .5.3 1.1.9 1.6.7.4 2 1.1 4.2 2 1.9.7 3.3 1.5 4.1 2.1.9.7 1.6 1.5 2 2.4.5.9.7 1.9.7 3.3zm5-23.9c0-2.1 1.2-3.2 3.6-3.2 2.5 0 3.7 1.1 3.7 3.2 0 1.1-.3 1.9-.9 2.5-.5.5-1.5.8-2.8.8-2.4 0-3.6-1-3.6-3.3zm7 31.1h-6.8v-24.6h6.8v24.6zm28.5-24.6v3.4l-3.8.9c.7 1.1 1.1 2.4 1.1 3.7 0 2.6-.9 4.8-2.8 6.2-1.9 1.5-4.4 2.1-7.7 2.1h-1.2l-1.1-.1c-.7.5-1.1 1.2-1.1 1.7 0 1.1 1.3 1.5 3.7 1.5h4.2c2.8 0 4.8.7 6.2 1.9 1.5 1.1 2.1 2.8 2.1 5 0 2.9-1.2 5.2-3.6 6.8-2.4 1.6-6 2.4-10.5 2.4-3.3 0-6-.7-7.8-1.9-1.9-1.2-2.8-2.9-2.8-5 0-1.5.5-2.6 1.5-3.7.9-1.1 2.3-1.7 4.1-2.1-.8-.3-1.3-.8-1.9-1.5-.5-.7-.8-1.3-.8-2.1 0-.9.3-1.7.8-2.4s1.3-1.2 2.4-1.9c-1.3-.5-2.3-1.5-3-2.6-.8-1.2-1.2-2.6-1.2-4.4 0-2.6.9-4.8 2.6-6.2 1.7-1.5 4.2-2.3 7.5-2.3.7 0 1.5.1 2.4.3 1.1 0 1.6.1 1.9.3h8.8zm-19.1 28.1c0 .9.5 1.7 1.3 2.3.9.5 2.3.8 3.8.8 2.4 0 4.2-.4 5.6-1.1 1.5-.7 2.1-1.6 2.1-2.6 0-.9-.4-1.6-1.2-2-.8-.3-2.1-.5-3.8-.5h-3.4c-1.2 0-2.3.3-3 .9-1 .5-1.4 1.3-1.4 2.2zm2.5-20c0 1.3.3 2.4.9 3.2.5.7 1.5 1.1 2.8 1.1 1.2 0 2.1-.4 2.8-1.1.5-.8.8-1.9.8-3.2 0-3-1.2-4.5-3.6-4.5-2.5 0-3.7 1.5-3.7 4.5zm42.7 16.5H-27v-14.4c0-1.7-.4-3-.9-4-.7-.9-1.6-1.3-2.8-1.3-1.7 0-3 .7-3.8 1.9-.8 1.3-1.1 3.3-1.1 6.2v11.6h-6.8v-24.6h5.2l.8 3h.4c.7-1.1 1.6-2 2.9-2.6 1.2-.5 2.6-.9 4.2-.9 3.7 0 6.2 1.2 7.5 3.6h.5c.7-1.1 1.7-2 3-2.6 1.2-.5 2.6-.9 4.2-.9 2.9 0 5 .8 6.4 2.1 1.5 1.5 2.3 3.8 2.3 6.9v16.2h-6.8V463c0-1.7-.4-3-.9-4-.7-.9-1.6-1.3-2.8-1.3-1.7 0-2.9.5-3.7 1.7-.8 1.2-1.3 3-1.3 5.6v12.2zm38 0l-1.3-3.3h-.1c-1.2 1.3-2.4 2.4-3.6 2.9-1.2.5-2.6.8-4.6.8-2.4 0-4.2-.7-5.6-2-1.5-1.3-2.1-3.3-2.1-5.8 0-2.6.9-4.5 2.8-5.8 1.9-1.2 4.6-1.9 8.3-2l4.2-.1v-1.1c0-2.5-1.3-3.8-3.8-3.8-2 0-4.2.7-6.9 1.9l-2.3-4.5c2.8-1.6 6-2.3 9.4-2.3 3.3 0 5.8.7 7.5 2.1 1.9 1.5 2.6 3.7 2.6 6.6v16.4h-4.5zm-2-11.3H13c-1.9.1-3.4.4-4.4 1.1-.9.7-1.5 1.7-1.5 3 0 1.9 1.2 2.8 3.3 2.8 1.6 0 2.8-.4 3.7-1.3.9-.9 1.5-2.1 1.5-3.6v-2z"/><path class="st3" d="M-83.8 467.4c0 2.5-.9 4.5-2.6 5.8-1.7 1.3-4.4 2-7.8 2-1.9 0-3.3-.1-4.6-.4-1.3-.3-2.5-.7-3.6-1.1v-5.6c1.3.5 2.6 1.1 4.2 1.5 1.6.4 2.9.7 4.1.7 2.5 0 3.7-.8 3.7-2.1 0-.5-.1-1.1-.5-1.3-.3-.4-.8-.8-1.6-1.2s-1.9-.9-3.2-1.5c-2-.8-3.3-1.5-4.2-2.1-.9-.8-1.6-1.5-2-2.4-.4-.9-.5-2-.5-3.2 0-2.3.8-4 2.5-5.2 1.7-1.2 4.1-1.7 7.3-1.7 2.9 0 5.8.7 8.6 1.9l-2 4.9c-1.3-.5-2.4-.9-3.4-1.3-1.2-.4-2.3-.5-3.3-.5-2 0-3 .5-3 1.6 0 .7.4 1.2 1.1 1.6.5.5 2 1.1 4.1 2 2 .8 3.3 1.5 4.2 2.3.9.7 1.6 1.5 2 2.3.2.8.5 1.9.5 3zm5-23.6c0-2.3 1.2-3.3 3.6-3.3 2.5 0 3.7 1.1 3.7 3.3 0 1.1-.3 1.9-.9 2.4-.7.7-1.6.9-2.8.9-2.4 0-3.6-1.1-3.6-3.3zm6.9 30.9h-6.6v-24.6h6.6v24.6zm28.6-24.6v3.4l-3.8 1.1c.7 1.1 1.1 2.3 1.1 3.6 0 2.6-.9 4.8-2.8 6.2-1.9 1.5-4.5 2.3-7.7 2.3l-1.2-.1h-1.1c-.7.5-1.1 1.1-1.1 1.7 0 .9 1.3 1.5 3.7 1.5h4.2c2.6 0 4.8.5 6.2 1.7 1.3 1.2 2.1 2.9 2.1 5.2 0 2.8-1.2 5-3.7 6.6-2.4 1.6-5.8 2.4-10.3 2.4-3.4 0-6.1-.5-7.8-1.7-1.9-1.2-2.8-2.9-2.8-5 0-1.6.5-2.8 1.5-3.7.9-1.1 2.3-1.7 4-2.3-.7-.3-1.2-.7-1.7-1.5-.5-.7-.8-1.3-.8-2.1 0-.9.3-1.7.8-2.3.5-.7 1.3-1.3 2.4-1.9-1.3-.5-2.4-1.5-3-2.8-.8-1.2-1.2-2.6-1.2-4.4 0-2.6.9-4.8 2.6-6.2 1.7-1.5 4.2-2.1 7.5-2.1.7 0 1.5 0 2.4.1s1.6.3 1.9.3h8.6zm-19.1 28.2c0 .9.4 1.6 1.3 2.1s2.1.8 3.7.8c2.5 0 4.4-.3 5.7-.9 1.5-.7 2.1-1.6 2.1-2.8 0-.9-.4-1.6-1.2-1.9-.9-.4-2.1-.5-3.8-.5H-58c-1.2 0-2.3.3-3 .8-1 .7-1.4 1.3-1.4 2.4zm2.6-20.1c0 1.3.3 2.4.8 3.2.7.8 1.6 1.2 2.9 1.2 1.2 0 2.1-.4 2.8-1.2.5-.8.8-1.9.8-3.2 0-2.9-1.2-4.5-3.6-4.5-2.6 0-3.7 1.6-3.7 4.5zm42.6 16.5H-24v-14.3c0-1.9-.3-3.2-.8-4.1-.7-.8-1.6-1.3-2.9-1.3-1.7 0-2.9.7-3.7 2-.8 1.2-1.2 3.3-1.2 6.2v11.5h-6.8v-24.6h5.2l.9 3.2h.4c.7-1.2 1.6-2 2.9-2.6 1.2-.7 2.6-.9 4.2-.9 3.7 0 6.2 1.2 7.5 3.6h.5c.7-1.2 1.7-2 2.9-2.6 1.3-.7 2.8-.9 4.4-.9 2.8 0 4.9.7 6.4 2.1s2.1 3.7 2.1 6.9v16h-6.8v-14.3c0-1.9-.3-3.2-.8-4.1-.7-.8-1.6-1.3-2.9-1.3-1.6 0-2.8.7-3.7 1.9-.8 1.2-1.2 3-1.2 5.6v12zm38 0l-1.3-3.3h-.1c-1.2 1.5-2.4 2.4-3.6 2.9-1.2.7-2.8.9-4.6.9-2.4 0-4.2-.7-5.7-2.1-1.3-1.3-2-3.2-2-5.7 0-2.6.9-4.6 2.8-5.8 1.9-1.2 4.6-2 8.2-2.1l4.4-.1v-1.1c0-2.5-1.3-3.7-3.8-3.7-2 0-4.4.5-7 1.7l-2.3-4.5c2.9-1.5 6.1-2.3 9.5-2.3 3.3 0 5.8.8 7.5 2.3s2.6 3.6 2.6 6.5v16.4h-4.6zm-2-11.4l-2.6.1c-2 0-3.4.4-4.4 1.1-.9.7-1.5 1.6-1.5 2.9 0 1.9 1.1 2.9 3.3 2.9 1.6 0 2.8-.5 3.7-1.5.9-.8 1.5-2 1.5-3.6v-1.9z"/><path class="st1" d="M-121.9 499.6h1.3c1.2 0 2.1-.2 2.7-.6s.9-1 .9-1.7c0-.8-.2-1.3-.7-1.7s-1.3-.5-2.3-.5h-1.8v4.5zm8.8-2.5c0 1.6-.6 2.8-1.8 3.7-1.2.8-2.9 1.3-5.3 1.3h-1.7v5.5h-3.9v-15.4h5.9c2.3 0 4 .4 5.1 1.2 1.2.9 1.7 2.1 1.7 3.7zm11.4-2.3c-1.5 0-2.6.4-3.4 1.4-.7.9-1.2 2.1-1.2 3.7 0 3.4 1.6 5.2 4.7 5.2 1.3 0 2.9-.3 4.8-.8v2.7c-1.6.5-3.3.8-5.1.8-2.7 0-4.8-.7-6.1-2-1.5-1.4-2.2-3.3-2.2-5.9 0-1.5.4-2.9 1.1-4.2.7-1.2 1.7-2.1 3.1-2.7 1.2-.7 2.8-1 4.5-1 1.8 0 3.7.4 5.4 1.1l-1.2 2.6c-.7-.3-1.3-.5-2.1-.7-1-.1-1.6-.2-2.3-.2zm26.3 8.6c0 1.3-.6 2.4-1.8 3.2-1.1.8-2.8 1.2-5 1.2-2 0-3.7-.3-5.1-.9v-3c1.2.4 2.2.8 3.2.9.9.2 1.6.3 2.3.3.9 0 1.5-.1 2-.4.5-.2.7-.7.7-1.2 0-.3-.1-.5-.4-.8-.1-.2-.5-.4-.9-.6-.4-.3-1.2-.6-2.4-1.1-1.1-.4-2-.8-2.4-1.2-.6-.4-1.1-.9-1.3-1.4-.4-.5-.6-1.2-.6-1.9 0-1.3.6-2.4 1.7-3.1 1.1-.8 2.7-1.2 4.7-1.2.9 0 1.8.1 2.7.3s1.8.5 2.7.8l-1.2 2.5c-1-.3-1.8-.6-2.4-.7-.6-.1-1.2-.2-1.8-.2-.9 0-1.3.1-1.7.4-.5.3-.6.7-.6 1.1 0 .3 0 .6.2.8.1.2.4.4.7.6.4.2 1.2.5 2.4 1 1.7.7 2.9 1.4 3.6 2.1.3.6.7 1.5.7 2.5zm20.2-3.4c0 2.5-.9 4.5-2.3 5.9-1.5 1.3-3.7 2-6.5 2s-5-.7-6.6-2c-1.5-1.4-2.2-3.3-2.2-5.9 0-2.6.7-4.6 2.2-5.9 1.6-1.3 3.8-2 6.6-2s5 .7 6.5 2c1.4 1.4 2.3 3.3 2.3 5.9zm-13.6 0c0 1.7.5 2.9 1.2 3.8.7.9 2 1.3 3.6 1.3 3.1 0 4.7-1.7 4.7-5.2s-1.6-5.2-4.7-5.2c-1.6 0-2.7.4-3.6 1.3-.7.9-1.2 2.3-1.2 4zm17.4 7.7v-15.4h3.9V505h7.5v2.7h-11.4zm29.4-15.4v9.9c0 1.1-.2 2.1-.9 3-.6.8-1.5 1.4-2.7 1.9-1.1.4-2.4.7-4 .7-2.4 0-4.3-.5-5.5-1.5-1.3-1-2.1-2.4-2.1-4.2v-9.9h3.9v9.4c0 1.2.4 2 .9 2.6.6.5 1.6.8 2.9.8 1.2 0 2.2-.3 2.7-.8.6-.6 1-1.5 1-2.6v-9.4h3.8zm11.7 15.4h-3.9V495h-5v-2.7h14v2.7h-5v12.7zm7.9 0v-15.4h3.9v15.4h-3.9zm25.3-7.7c0 2.5-.7 4.5-2.2 5.9-1.6 1.3-3.8 2-6.6 2s-5-.7-6.5-2c-1.5-1.4-2.3-3.3-2.3-5.9 0-2.6.9-4.6 2.3-5.9 1.5-1.3 3.7-2 6.6-2 2.8 0 4.9.7 6.5 2 1.5 1.4 2.2 3.3 2.2 5.9zm-13.5 0c0 1.7.4 2.9 1.2 3.8.7.9 2 1.3 3.4 1.3 3.2 0 4.8-1.7 4.8-5.2s-1.6-5.2-4.7-5.2c-1.6 0-2.8.4-3.6 1.3-.7.9-1.1 2.3-1.1 4zm33.8 7.7h-5L30.1 496H30c.1 2 .2 3.5.2 4.4v7.3h-3.4v-15.4h4.9l8.1 11.5c-.1-2-.1-3.4-.1-4.3v-7.3h3.6v15.5z"/><path class="st4" d="M-4.5 359.5h-3.4c0-7.5-3.1-11.2-9.4-11.2h-51.1c-3.2 0-5.5 1.3-7 3.8-.4.4-1.2 2.9-2.7 7.4h-3.8v-19.9h77.5v19.9zM-20.1 400H-24c0-7.4-2.8-11.2-8.6-11.2h-21.2c-3.2 0-5.4 1.4-6.8 4-1 2.3-2 4.7-3.1 7l-2.3-.3v-29.4h2.7c.6 4 2.3 6.8 5.4 8.2 2.3 1 6.2 1.6 11.6 1.6 1 0 2.5 0 4.3.1h4.4c4.3 0 7.5-.5 9.4-1.7 2.7-1.4 4.2-4.2 4.2-8.2h3.9V400zm18.6 29.6h-83.2v-23l1-.7h2.7c0 9.9 3.1 14.8 9.2 14.8l60.6-.1c3.4-3.4 5.3-5.3 5.5-6 .2-.7.4-3.5.4-8.7h3.8v23.7z"/><g><path class="st5" d="M-1.4 355.6h-3.4c0-7.5-3.1-11.2-9.4-11.2h-51.1c-3.2 0-5.5 1.3-7 3.8-.4.4-1.2 2.9-2.7 7.4h-3.8v-19.9h77.5v19.9zM-17 396.1h-3.9c0-7.4-2.8-11.2-8.6-11.2h-21.2c-3.2 0-5.4 1.4-6.8 4-1 2.3-2 4.7-3.1 7l-2.3-.3v-29.4h2.7c.6 4 2.3 6.8 5.4 8.2 2.3 1 6.2 1.6 11.6 1.6 1 0 2.5 0 4.3.1h4.4c4.3 0 7.5-.5 9.4-1.7 2.7-1.4 4.2-4.2 4.2-8.2h3.9v29.9zm18.6 29.6h-83.2v-23l1-.7h2.7c0 9.9 3.1 14.8 9.2 14.8l60.6-.1c3.4-3.4 5.3-5.3 5.5-6 .2-.7.4-3.5.4-8.7h3.8v23.7z"/></g></svg>